<svg xmlns="http://www.w3.org/2000/svg" viewBox="0 0 657 105" fill="none" aria-hidden="true">
  <path d="M205.764 22.9023C208.102 22.9023 210.213 23.4785 212.097 24.6331C214.045 25.7877 215.57 27.296 216.674 29.1565C217.843 31.0169 218.426 33.1035 218.426 35.4132V66.2063C218.426 68.5161 217.843 70.6027 216.674 72.4631C215.57 74.3235 214.045 75.8316 212.097 76.9865C210.213 78.1411 208.102 78.7172 205.764 78.7175H171.478V100.851H160.958V22.9023H205.764ZM44.8067 22.9023C47.1444 22.9023 49.2557 23.4785 51.1387 24.6331C53.0866 25.7237 54.6127 27.2323 55.7166 29.1565C56.8855 31.0809 57.471 33.1678 57.471 35.4132V56.0079H10.5205V65.9183C10.5205 66.56 10.7484 67.1388 11.203 67.6519C11.7221 68.1002 12.306 68.324 12.9547 68.324H57.471V78.7175H12.664C10.3266 78.7175 8.21505 78.1408 6.33201 76.9865C4.44908 75.8318 2.92311 74.3233 1.75428 72.4631C0.585392 70.6027 0 68.5161 0 66.2063V35.4132C0 33.1035 0.585392 31.0169 1.75428 29.1565C2.92308 27.2963 4.44921 25.7877 6.33201 24.6331C8.21497 23.4787 10.3266 22.9023 12.664 22.9023H44.8067ZM139.914 22.9023C142.316 22.9023 144.459 23.4787 146.342 24.6331C148.225 25.7877 149.72 27.296 150.824 29.1565C151.993 31.0169 152.578 33.1035 152.578 35.4132V78.7175H142.154V35.7013C142.154 35.0598 141.894 34.5153 141.375 34.0662C140.921 33.5531 140.369 33.2956 139.719 33.2956H117.999C117.284 33.2956 116.699 33.5531 116.244 34.0662C115.79 34.5153 115.562 35.0598 115.562 35.7013V78.7175H104.945V35.7013C104.945 35.0601 104.686 34.5151 104.167 34.0662C103.712 33.5531 103.158 33.2956 102.509 33.2956H80.6916C80.0424 33.2956 79.4881 33.5531 79.0334 34.0662C78.5795 34.5151 78.3536 35.0601 78.3536 35.7013V78.7175H67.7345V22.9023H139.914ZM269.667 33.2956H238.403C237.754 33.2956 237.168 33.5531 236.649 34.0662C236.195 34.5153 235.966 35.0598 235.966 35.7013V78.7175H225.446V35.4132C225.446 33.1035 226.031 31.0169 227.2 29.1565C228.369 27.2963 229.895 25.7877 231.778 24.6331C233.726 23.4785 235.837 22.9023 238.11 22.9023H269.667V33.2956ZM320.856 22.9023C323.195 22.9023 325.305 23.4787 327.189 24.6331C329.137 25.7237 330.662 27.2323 331.767 29.1565C332.937 31.0809 333.521 33.1678 333.521 35.4132V56.0079H286.571V65.9185C286.571 66.56 286.799 67.1388 287.254 67.6519C287.772 68.1002 288.357 68.3237 289.005 68.324H333.521V78.7175H288.713C286.377 78.7175 284.264 78.1411 282.383 76.9865C280.499 75.8318 278.973 74.3235 277.804 72.4631C276.635 70.6027 276.05 68.5161 276.05 66.2063V35.4132C276.05 33.1035 276.635 31.0169 277.804 29.1565C278.973 27.2963 280.499 25.7877 282.383 24.6331C284.264 23.4785 286.377 22.9023 288.713 22.9023H320.856ZM387.628 22.9023C389.966 22.9023 392.076 23.4785 393.961 24.6331C395.908 25.7877 397.434 27.296 398.539 29.1565C399.706 31.0169 400.29 33.1035 400.29 35.4132V36.8559H389.674V35.7013C389.674 35.0598 389.446 34.5153 388.991 34.0662C388.537 33.5531 387.984 33.2956 387.336 33.2956H355.777C355.126 33.2956 354.541 33.5531 354.023 34.0662C353.568 34.5153 353.34 35.0601 353.34 35.7013V43.2089C353.34 43.8496 353.568 44.4268 354.023 44.9396C354.541 45.3887 355.126 45.6144 355.777 45.6144H387.628C389.966 45.6144 392.076 46.1905 393.961 47.3454C395.908 48.436 397.434 49.944 398.539 51.8685C399.706 53.7289 400.29 55.8136 400.29 58.1229V66.2063C400.29 68.5161 399.706 70.6027 398.539 72.4631C397.434 74.3235 395.908 75.8316 393.961 76.9865C392.076 78.1411 389.966 78.7172 387.628 78.7175H355.482C353.146 78.7172 351.033 78.1411 349.152 76.9865C347.268 75.8316 345.743 74.3235 344.573 72.4631C343.404 70.6027 342.822 68.5161 342.822 66.2063V64.7636H353.34V65.9185C353.34 66.56 353.568 67.1388 354.023 67.6519C354.541 68.101 355.126 68.324 355.777 68.324H387.336C387.984 68.324 388.537 68.1005 388.991 67.6519C389.446 67.1388 389.674 66.56 389.674 65.9185V58.4133C389.674 57.7718 389.446 57.2249 388.991 56.7758C388.537 56.2632 387.984 56.0079 387.336 56.0079H355.482C353.146 56.0076 351.033 55.4607 349.152 54.3701C347.268 53.2155 345.743 51.7072 344.573 49.847C343.404 47.9228 342.822 45.806 342.822 43.497V35.4132C342.822 33.1035 343.404 31.0169 344.573 29.1565C345.743 27.296 347.268 25.7877 349.152 24.6331C351.033 23.4785 353.146 22.9023 355.482 22.9023H387.628ZM453.082 22.9023C455.418 22.9023 457.527 23.479 459.412 24.6331C461.359 25.7237 462.885 27.2323 463.988 29.1565C465.157 31.0809 465.744 33.1678 465.744 35.4132V56.0079H418.794V65.9185C418.794 66.56 419.02 67.1388 419.477 67.6519C419.995 68.1002 420.579 68.3237 421.228 68.324H465.744V78.7175H420.935C418.6 78.7175 416.487 78.1411 414.606 76.9865C412.722 75.8318 411.196 74.3235 410.027 72.4631C408.858 70.6027 408.273 68.5161 408.273 66.2063V35.4132C408.273 33.1035 408.858 31.0169 410.027 29.1565C411.196 27.2963 412.722 25.7877 414.606 24.6331C416.487 23.4785 418.6 22.9023 420.935 22.9023H453.082ZM502.448 42.2459L519.202 22.9023H531.376V24.7317L509.362 50.3296L531.474 76.8905V78.7175H519.202L502.448 58.4133L485.791 78.7175H473.517V76.8905L495.629 50.3296L473.517 24.7317V22.9023H485.791L502.448 42.2459ZM173.912 33.2956C173.263 33.2956 172.678 33.5531 172.158 34.0662C171.704 34.5153 171.478 35.0601 171.478 35.7013V65.9185C171.478 66.56 171.704 67.1388 172.158 67.6519C172.678 68.101 173.263 68.324 173.912 68.324H205.471C206.12 68.324 206.672 68.1005 207.127 67.6519C207.646 67.1388 207.908 66.56 207.908 65.9185V35.7013C207.908 35.0598 207.646 34.5153 207.127 34.0662C206.672 33.5531 206.121 33.2956 205.471 33.2956H173.912ZM12.9547 33.2956C12.3055 33.2956 11.7224 33.5534 11.203 34.0662C10.7485 34.5153 10.5205 35.0598 10.5205 35.7013V46.2867H46.8518V35.7013C46.8516 35.0601 46.6257 34.5151 46.1718 34.0662C45.7174 33.5534 45.1649 33.2959 44.5163 33.2956H12.9547ZM289.005 33.2956C288.357 33.2959 287.772 33.5534 287.254 34.0662C286.799 34.5153 286.571 35.0598 286.571 35.7013V46.2867H322.905V35.7013C322.905 35.0601 322.677 34.5153 322.222 34.0662C321.768 33.5531 321.215 33.2956 320.567 33.2956H289.005ZM421.228 33.2956C420.579 33.2959 419.995 33.5534 419.477 34.0662C419.022 34.5153 418.794 35.0598 418.794 35.7013V46.2867H455.128V35.7013C455.128 35.0598 454.899 34.5153 454.445 34.0662C453.991 33.5531 453.438 33.2956 452.789 33.2956H421.228Z" fill="white"/>
  <path d="M603.958 104.571L597.771 87.8557C601.962 88.5894 606.134 88.5617 610.139 87.865L603.958 104.571ZM589.837 66.4096L597.771 87.8557C596.719 87.6715 595.664 87.4443 594.615 87.1624C580.584 83.403 570.706 71.883 568.357 58.4593L589.837 66.4096ZM639.572 58.4556C639.389 59.5052 639.16 60.5573 638.878 61.6064C635.115 75.6482 623.577 85.5267 610.139 87.865L618.082 66.4096L639.572 58.4556ZM568.349 46.1124C567.624 50.294 567.655 54.4608 568.357 58.4593L551.671 52.2852L568.349 46.1124ZM589.837 38.165L568.349 46.1124C568.535 45.0409 568.772 43.9687 569.059 42.898C572.821 28.8522 584.36 18.966 597.803 16.6308L589.837 38.165ZM656.244 52.2862L639.572 58.4556C640.305 54.2795 640.281 50.1184 639.59 46.1235L656.244 52.2862ZM613.322 17.3421C627.38 21.1092 637.265 32.6655 639.59 46.1235L618.082 38.165L610.112 16.6352C611.183 16.821 612.254 17.0556 613.322 17.3421ZM610.112 16.6352C605.946 15.911 601.789 15.9383 597.803 16.6308L603.958 0L610.112 16.6352Z" fill="white"/>
</svg>
